<?xml version="1.0" standalone="no"?>
<!DOCTYPE svg PUBLIC "-//W3C//DTD SVG 20010904//EN"
 "http://www.w3.org/TR/2001/REC-SVG-20010904/DTD/svg10.dtd">
<svg version="1.0" xmlns="http://www.w3.org/2000/svg"
 width="181.000000pt" height="89.000000pt" viewBox="0 0 181.000000 89.000000"
 preserveAspectRatio="xMidYMid meet">

<g transform="translate(0.000000,89.000000) scale(0.100000,-0.100000)"
fill="#000000" stroke="none">
<path d="M342 669 c-105 -20 -182 -108 -182 -209 0 -56 20 -99 64 -138 45 -39
21 -43 -26 -5 -33 28 -33 28 -17 3 22 -34 74 -68 115 -76 51 -9 95 3 137 37
62 51 74 151 22 185 -26 17 -76 16 -82 -2 -2 -7 6 -10 23 -6 72 13 48 -107
-24 -123 -47 -10 -105 15 -124 55 -58 116 24 240 176 265 21 3 36 8 35 9 -11
9 -80 12 -117 5z"/>
<path d="M373 590 c-53 -24 -83 -70 -83 -128 0 -50 33 -92 73 -92 25 0 55 25
43 37 -3 3 -6 1 -6 -5 0 -16 -33 -15 -48 0 -39 39 10 118 72 118 83 0 130 -50
123 -133 -8 -96 -87 -166 -196 -175 -72 -6 -42 -20 46 -21 76 -1 101 8 152 55
92 83 87 247 -9 302 -16 9 -30 20 -30 24 0 13 54 -13 84 -40 l29 -27 -23 34
c-45 66 -146 88 -227 51z"/>
<path d="M1050 600 c0 -5 7 -10 15 -10 8 0 15 5 15 10 0 6 -7 10 -15 10 -8 0
-15 -4 -15 -10z"/>
<path d="M1402 599 c2 -6 8 -10 13 -10 5 0 11 4 13 10 2 6 -4 11 -13 11 -9 0
-15 -5 -13 -11z"/>
<path d="M790 590 c0 -5 9 -10 20 -10 18 0 20 -7 20 -55 0 -42 3 -55 15 -55
12 0 15 13 15 55 0 48 2 55 20 55 11 0 20 5 20 10 0 6 -25 10 -55 10 -30 0
-55 -4 -55 -10z"/>
<path d="M1120 535 c0 -51 3 -65 15 -65 12 0 15 14 15 65 0 51 -3 65 -15 65
-12 0 -15 -14 -15 -65z"/>
<path d="M1185 581 c3 -10 11 -38 18 -62 17 -60 42 -63 58 -8 l13 42 14 -42
c18 -55 42 -51 59 8 7 24 15 52 18 62 5 14 1 19 -13 19 -14 0 -22 -11 -29 -42
l-9 -43 -13 43 c-15 54 -39 53 -56 -3 l-12 -40 -8 43 c-6 32 -12 42 -27 42
-14 0 -18 -5 -13 -19z"/>
<path d="M1670 581 c0 -14 -6 -17 -25 -14 -32 7 -51 -30 -36 -69 9 -23 16 -27
51 -26 l40 0 0 64 c0 50 -3 64 -15 64 -8 0 -15 -8 -15 -19z m0 -61 c0 -24 -20
-37 -30 -19 -10 16 7 52 21 44 5 -4 9 -15 9 -25z"/>
<path d="M929 553 c-13 -15 -11 -16 13 -10 15 4 29 3 32 -2 3 -5 -8 -11 -25
-15 -25 -5 -30 -10 -27 -28 2 -19 10 -23 46 -25 l42 -2 0 38 c0 20 -5 42 -12
49 -17 17 -53 15 -69 -5z m46 -53 c-3 -5 -10 -10 -16 -10 -5 0 -9 5 -9 10 0 6
7 10 16 10 8 0 12 -4 9 -10z"/>
<path d="M1050 520 c0 -38 4 -50 15 -50 11 0 15 12 15 50 0 38 -4 50 -15 50
-11 0 -15 -12 -15 -50z"/>
<path d="M1400 520 c0 -38 4 -50 15 -50 11 0 15 12 15 50 0 38 -4 50 -15 50
-11 0 -15 -12 -15 -50z"/>
<path d="M1470 519 c0 -37 4 -49 15 -49 10 0 15 10 15 33 0 19 3 37 7 40 12
13 33 -15 33 -44 0 -19 5 -29 15 -29 11 0 15 11 15 39 0 47 -13 59 -62 59
l-38 0 0 -49z"/>
<path d="M790 310 l0 -50 35 0 c28 0 38 5 47 25 18 41 -3 75 -47 75 l-35 0 0
-50z m70 25 c18 -21 -2 -65 -30 -65 -17 0 -20 7 -20 40 0 32 4 40 19 40 10 0
24 -7 31 -15z"/>
<path d="M1340 335 c0 -14 4 -25 9 -25 5 0 7 9 4 19 -4 15 1 20 24 24 27 4 27
4 -4 6 -29 1 -33 -2 -33 -24z"/>
<path d="M938 328 c18 -18 15 -28 -9 -28 -15 0 -19 5 -15 16 3 8 2 12 -4 9
-30 -19 4 -80 38 -68 22 8 12 20 -13 15 -15 -2 -25 0 -25 7 0 6 14 11 30 11
18 0 30 5 30 13 0 15 -20 37 -34 37 -6 0 -5 -5 2 -12z"/>
<path d="M990 301 c0 -23 2 -41 4 -41 8 0 12 71 4 76 -4 3 -8 -13 -8 -35z"/>
<path d="M1031 318 c5 -9 10 -27 10 -40 1 -16 4 -12 8 11 8 48 31 53 31 7 0
-20 5 -36 10 -36 13 0 13 40 0 60 -5 8 -22 15 -39 15 -24 0 -28 -3 -20 -17z"/>
<path d="M1165 320 c16 -18 17 -24 7 -41 -7 -10 -8 -19 -3 -19 29 0 23 63 -6
74 -15 6 -14 4 2 -14z"/>
<path d="M1251 334 c-2 -20 21 -74 30 -74 10 0 30 44 28 63 0 7 -7 -1 -14 -18
l-13 -30 -15 35 c-9 19 -16 30 -16 24z"/>
<path d="M1124 316 c-9 -23 -1 -49 16 -53 12 -4 13 -3 1 5 -8 6 -12 20 -9 36
6 28 1 35 -8 12z"/>
<path d="M1370 321 c0 -6 5 -11 10 -11 6 0 10 -10 10 -21 0 -17 -5 -20 -25
-17 -20 4 -23 3 -14 -8 8 -10 16 -11 30 -3 23 12 25 42 4 59 -10 9 -15 9 -15
1z"/>
</g>
</svg>
